<svg xmlns="http://www.w3.org/2000/svg" viewBox="0 0 256 256">
  <g fill="currentColor">
    <path d="M73 44h18v74c0 49 25 79 67 79 33 0 59-25 59-57 0-22-12-42-31-52l9-16c25 13 40 39 40 68 0 42-34 75-77 75-52 0-85-37-85-97z"/>
    <circle cx="82" cy="44" r="20"/><circle cx="82" cy="92" r="18"/><circle cx="88" cy="142" r="19"/>
    <circle cx="117" cy="188" r="20"/><circle cx="169" cy="202" r="20"/><circle cx="213" cy="169" r="19"/>
    <path fill-rule="evenodd" d="m181 50 29 17v34l-29 17-30-17V67zm0 22-11 6v12l11 6 10-6V78z"/>
  </g>
</svg>
