<svg xmlns="http://www.w3.org/2000/svg" viewBox="0 0 256 256" role="img" aria-label="Beads">
  <g fill="currentColor">
    <path fill-rule="evenodd" d="M128 48a80 80 0 1 1 0 160 80 80 0 0 1 0-160zm0 14a66 66 0 1 0 0 132 66 66 0 0 0 0-132z"/>
    <circle cx="128" cy="49" r="20"/>
    <circle cx="178" cy="67" r="20"/>
    <circle cx="205" cy="113" r="20"/>
    <circle cx="196" cy="166" r="20"/>
    <circle cx="155" cy="201" r="20"/>
    <circle cx="101" cy="201" r="20"/>
    <circle cx="60" cy="166" r="20"/>
    <circle cx="51" cy="113" r="20"/>
    <circle cx="78" cy="67" r="20"/>
    <path fill-rule="evenodd" d="m128 96 28 16v32l-28 16-28-16v-32l28-16zm0 17-13 8v14l13 8 13-8v-14l-13-8z"/>
  </g>
</svg>
