<svg xmlns="http://www.w3.org/2000/svg" viewBox="0 0 256 256" role="img" aria-label="Beads Rust logo">
  <defs>
    <linearGradient id="bead-warm" x1="0" y1="0" x2="1" y2="1">
      <stop offset="0" stop-color="#f2b544"/>
      <stop offset="1" stop-color="#e76f2e"/>
    </linearGradient>
  </defs>
  <path d="M82 44v74c0 54 29 88 76 88 38 0 68-29 68-66 0-26-14-49-36-60" fill="none" stroke="#172033" stroke-width="18" stroke-linecap="round" stroke-linejoin="round"/>
  <circle cx="82" cy="44" r="20" fill="#e76f2e"/>
  <circle cx="82" cy="92" r="18" fill="#ef8b30"/>
  <circle cx="88" cy="142" r="19" fill="#f2b544"/>
  <circle cx="117" cy="188" r="20" fill="#ef9734"/>
  <circle cx="169" cy="202" r="20" fill="#e76f2e"/>
  <circle cx="213" cy="169" r="19" fill="#f2b544"/>
  <path d="m181 50 29 17v34l-29 17-30-17V67z" fill="#172033"/>
  <path d="m181 72 10 6v12l-10 6-11-6V78z" fill="url(#bead-warm)"/>
</svg>
